<?xml version="1.0" encoding="UTF-8" standalone="no"?>
<svg
   xmlns:dc="http://purl.org/dc/elements/1.1/"
   xmlns:cc="http://creativecommons.org/ns#"
   xmlns:rdf="http://www.w3.org/1999/02/22-rdf-syntax-ns#"
   xmlns:svg="http://www.w3.org/2000/svg"
   xmlns="http://www.w3.org/2000/svg"
   xmlns:xlink="http://www.w3.org/1999/xlink"
   xmlns:sodipodi="http://sodipodi.sourceforge.net/DTD/sodipodi-0.dtd"
   xmlns:inkscape="http://www.inkscape.org/namespaces/inkscape"
   width="800"
   height="400"
   viewBox="0 0 211.66667 105.83333"
   version="1.1"
   id="svg8"
   inkscape:version="1.0.2-2 (e86c870879, 2021-01-15)"
   sodipodi:docname="title.svg.svg"
   inkscape:export-filename="C:\Users\Karim\Desktop\title.png.png"
   inkscape:export-xdpi="100.54301"
   inkscape:export-ydpi="100.54301">
  <defs
     id="defs2">
    <linearGradient
       inkscape:collect="always"
       id="linearGradient993">
      <stop
         style="stop-color:#ffff00;stop-opacity:1"
         offset="0"
         id="stop989" />
      <stop
         style="stop-color:#ff0000;stop-opacity:0.06349206"
         offset="1"
         id="stop991" />
    </linearGradient>
    <inkscape:path-effect
       effect="envelope"
       id="path-effect987"
       is_visible="true"
       lpeversion="1"
       yy="true"
       xx="false"
       bendpath1="m 124.33613,7.6631978 h 13.60351"
       bendpath2="M 137.93964,7.6631978 V 50.423448"
       bendpath3="M 118.82034,52.368873 H 144.2434"
       bendpath4="M 124.33613,7.6631978 V 50.423448"
       bendpath3-nodetypes="cc" />
    <linearGradient
       inkscape:collect="always"
       id="linearGradient983">
      <stop
         style="stop-color:#000000;stop-opacity:1;"
         offset="0"
         id="stop979" />
      <stop
         style="stop-color:#000000;stop-opacity:0.06349206"
         offset="1"
         id="stop981" />
    </linearGradient>
    <inkscape:path-effect
       effect="skeletal"
       id="path-effect929"
       is_visible="true"
       lpeversion="1"
       pattern="m 4.110491,-1.094866 c 0,-2.76 2.24,-5 5,-5 2.76,0 5,2.24 5,5 0,2.76 -2.24,5 -5,5 -2.76,0 -5,-2.24 -5,-5 z"
       copytype="single_stretched"
       prop_scale="1"
       scale_y_rel="false"
       spacing="0"
       normal_offset="0"
       tang_offset="0"
       prop_units="false"
       vertical_pattern="false"
       hide_knot="false"
       fuse_tolerance="0" />
    <inkscape:path-effect
       effect="skeletal"
       id="path-effect925"
       is_visible="true"
       lpeversion="1"
       pattern="M 0,5 C 0,2.24 2.24,0 5,0 7.76,0 10,2.24 10,5 10,7.76 7.76,10 5,10 2.24,10 0,7.76 0,5 Z"
       copytype="single_stretched"
       prop_scale="1"
       scale_y_rel="false"
       spacing="0"
       normal_offset="0"
       tang_offset="0"
       prop_units="false"
       vertical_pattern="false"
       hide_knot="false"
       fuse_tolerance="0" />
    <inkscape:path-effect
       effect="skeletal"
       id="path-effect921"
       is_visible="true"
       lpeversion="1"
       pattern="M 0,5 C 0,2.24 2.24,0 5,0 7.76,0 10,2.24 10,5 10,7.76 7.76,10 5,10 2.24,10 0,7.76 0,5 Z"
       copytype="single_stretched"
       prop_scale="1"
       scale_y_rel="false"
       spacing="0"
       normal_offset="0"
       tang_offset="0"
       prop_units="false"
       vertical_pattern="false"
       hide_knot="false"
       fuse_tolerance="0" />
    <linearGradient
       inkscape:collect="always"
       id="linearGradient887">
      <stop
         style="stop-color:#ffff00;stop-opacity:1"
         offset="0"
         id="stop883" />
      <stop
         style="stop-color:#ff0000;stop-opacity:1"
         offset="1"
         id="stop885" />
    </linearGradient>
    <rect
       x="11.759859"
       y="8.5526247"
       width="208.47025"
       height="84.9917"
       id="rect26" />
    <linearGradient
       inkscape:collect="always"
       xlink:href="#linearGradient887"
       id="linearGradient889"
       x1="116.46483"
       y1="14.913369"
       x2="119.67763"
       y2="131.897"
       gradientUnits="userSpaceOnUse" />
    <linearGradient
       inkscape:collect="always"
       xlink:href="#linearGradient993"
       id="linearGradient953"
       x1="129.11668"
       y1="40.223827"
       x2="129.23579"
       y2="49.405285"
       gradientUnits="userSpaceOnUse"
       gradientTransform="matrix(1.0243249,0,0,1.0064396,-1.8361827,1.3234159)" />
    <linearGradient
       inkscape:collect="always"
       xlink:href="#linearGradient983"
       id="linearGradient985"
       x1="128.11383"
       y1="40.796764"
       x2="128.2894"
       y2="50.671196"
       gradientUnits="userSpaceOnUse"
       gradientTransform="matrix(0.69490154,0,0,0.93580897,41.394762,3.6282907)" />
  </defs>
  <sodipodi:namedview
     id="base"
     pagecolor="#000000"
     bordercolor="#666666"
     borderopacity="1.0"
     inkscape:pageopacity="0"
     inkscape:pageshadow="2"
     inkscape:zoom="0.98994949"
     inkscape:cx="435.48259"
     inkscape:cy="295.68335"
     inkscape:document-units="px"
     inkscape:current-layer="layer1"
     inkscape:document-rotation="0"
     showgrid="false"
     units="px"
     inkscape:pagecheckerboard="false"
     inkscape:window-width="1920"
     inkscape:window-height="991"
     inkscape:window-x="-9"
     inkscape:window-y="-9"
     inkscape:window-maximized="1" />
  <metadata
     id="metadata5">
    <rdf:RDF>
      <cc:Work
         rdf:about="">
        <dc:format>image/svg+xml</dc:format>
        <dc:type
           rdf:resource="http://purl.org/dc/dcmitype/StillImage" />
        <dc:title></dc:title>
      </cc:Work>
    </rdf:RDF>
  </metadata>
  <g
     inkscape:groupmode="layer"
     id="layer2"
     inkscape:label="Layer 2">
    <path
       style="color:#000000;font-style:normal;font-variant:normal;font-weight:normal;font-stretch:normal;font-size:medium;line-height:normal;font-family:sans-serif;font-variant-ligatures:normal;font-variant-position:normal;font-variant-caps:normal;font-variant-numeric:normal;font-variant-alternates:normal;font-variant-east-asian:normal;font-feature-settings:normal;font-variation-settings:normal;text-indent:0;text-align:start;text-decoration:none;text-decoration-line:none;text-decoration-style:solid;text-decoration-color:#000000;letter-spacing:normal;word-spacing:normal;text-transform:none;writing-mode:lr-tb;direction:ltr;text-orientation:mixed;dominant-baseline:auto;baseline-shift:baseline;text-anchor:start;white-space:normal;shape-padding:0;shape-margin:0;inline-size:0;clip-rule:nonzero;display:inline;overflow:visible;visibility:visible;opacity:1;isolation:auto;mix-blend-mode:normal;color-interpolation:sRGB;color-interpolation-filters:linearRGB;solid-color:#000000;solid-opacity:1;vector-effect:none;fill:url(#linearGradient953);fill-opacity:1;fill-rule:nonzero;stroke:url(#linearGradient985);stroke-width:0.370071;stroke-linecap:butt;stroke-linejoin:miter;stroke-miterlimit:4;stroke-dasharray:0.185035, 0.185035;stroke-dashoffset:0;stroke-opacity:1;color-rendering:auto;image-rendering:auto;shape-rendering:auto;text-rendering:auto;enable-background:accumulate;stop-color:#000000;stop-opacity:1"
       d="m 130.83521,7.655186 c -0.18365,0.00128 -0.36732,0.00256 -0.551,0.00385 -4e-5,0.00573 -9e-5,0.011463 -1.3e-4,0.017195 -0.25109,13.7209414 -0.61763,27.4418824 -1.09963,41.1628244 -0.22582,0.164339 -0.45282,0.328677 -0.68101,0.493016 -0.0463,0.05414 -0.0928,0.108283 -0.13924,0.162425 -0.14265,-0.464351 -0.28299,-0.928701 -0.42103,-1.393052 -0.2345,0.385367 -0.4718,0.770734 -0.71191,1.156101 0.0263,-0.709584 0.0527,-1.419167 0.079,-2.12875 -0.56041,0.754171 -1.13406,1.508342 -1.72097,2.262512 0.009,-0.163063 0.0178,-0.326127 0.0267,-0.489191 -0.54536,0.270712 -1.09538,0.541424 -1.65004,0.812136 0.10073,-0.49811 0.20043,-0.99622 0.29909,-1.49433 -0.52696,0.479637 -1.06163,0.959274 -1.60403,1.438911 -0.098,0.03121 -0.19609,0.06242 -0.29428,0.09363 -0.071,-0.459892 -0.14029,-0.919783 -0.20796,-1.379675 -0.36656,0.423584 -0.73764,0.847169 -1.11323,1.270753 -0.0766,-0.141407 -0.1528,-0.282814 -0.22858,-0.424221 -0.2704,0.166885 -0.54216,0.333771 -0.81529,0.500657 -0.008,-0.180898 -0.0162,-0.361797 -0.024,-0.542695 -0.33301,0.03121 -0.66635,0.06242 -1.00003,0.09363 0.0195,0.657989 0.0412,1.315978 0.065,1.973967 0.44191,-0.264979 0.8804,-0.529958 1.31545,-0.794937 0.14401,0.266252 0.28949,0.532505 0.43643,0.798757 0.2221,-0.247144 0.44267,-0.494288 0.66171,-0.741432 0.0518,0.351607 0.10459,0.703214 0.15833,1.05482 0.32611,-0.352243 0.64898,-0.704486 0.9686,-1.05673 0.0733,-0.02356 0.14659,-0.04713 0.21981,-0.0707 -0.0584,0.271985 -0.11711,0.54397 -0.17613,0.815956 0.63919,-0.304471 1.27249,-0.608942 1.89989,-0.913413 -0.0441,0.67455 -0.0883,1.349099 -0.13238,2.023649 0.61239,-0.75417 1.21153,-1.508341 1.79743,-2.262511 -0.003,0.05605 -0.005,0.112106 -0.008,0.168159 0.13156,0.01593 0.26319,0.03185 0.39489,0.04778 -8.6e-4,0.01975 -0.002,0.03949 -0.003,0.05924 0.31888,0.05414 0.6383,0.108285 0.95828,0.162427 0.0245,-0.03885 0.049,-0.07771 0.0735,-0.116566 0.0987,0.326765 0.19849,0.653529 0.29944,0.980294 0.46049,-0.521677 0.91367,-1.043355 1.35952,-1.565032 0.30295,-0.218481 0.60381,-0.436961 0.90257,-0.655441 0.18703,-7.642349 0.33838,-15.284699 0.45404,-22.927048 0.19348,7.664007 0.45266,15.328013 0.77754,22.99202 0.15905,0.258609 0.31942,0.517219 0.48109,0.775828 0.35005,0.28345 0.70324,0.566901 1.05956,0.850351 0.29774,-0.393647 0.59165,-0.787293 0.88173,-1.18094 0.0772,0.120387 0.15467,0.240775 0.23243,0.361162 0.11619,0.615949 0.23424,1.231897 0.35414,1.847846 0.52908,-0.629962 1.04723,-1.259923 1.55444,-1.889885 -0.0525,0.238863 -0.10558,0.477726 -0.15913,0.716589 0.30412,0.106373 0.60924,0.212747 0.91537,0.319121 0.32369,-0.33823 0.64368,-0.676461 0.95999,-1.014692 0.59539,0.628051 1.20181,1.256102 1.81924,1.884153 0.0812,-0.698754 0.15927,-1.397508 0.23412,-2.096263 0.52609,0.427406 1.05883,0.854812 1.59821,1.282218 0.31605,-0.462439 0.62672,-0.924878 0.93202,-1.387317 0.196,0.235041 0.39326,0.470082 0.59178,0.705124 0.27876,-0.124846 0.55634,-0.249691 0.83275,-0.374536 -0.53412,-0.627415 -1.05928,-1.254829 -1.57547,-1.882243 -0.35119,0.543971 -0.70981,1.087942 -1.07587,1.631912 -0.71896,-0.578368 -1.42578,-1.156736 -2.12046,-1.735104 -0.0654,0.59493 -0.1331,1.18986 -0.20311,1.784789 -0.36257,-0.378359 -0.72114,-0.756719 -1.07572,-1.135079 -0.16011,0.174529 -0.3212,0.349059 -0.48327,0.523588 0.0488,-0.238863 0.0971,-0.477726 0.14492,-0.716589 -0.29745,-0.107647 -0.59389,-0.215295 -0.88931,-0.322943 -0.3681,0.387914 -0.74117,0.775827 -1.1192,1.163741 -0.10649,0.131853 -0.21347,0.263705 -0.32092,0.395558 -0.37403,-0.570087 -0.7417,-1.140174 -1.103,-1.710261 -0.37287,0.517219 -0.75235,1.034438 -1.13843,1.551656 -0.005,-0.0045 -0.01,-0.0089 -0.0148,-0.01336 -0.10884,-0.172619 -0.21709,-0.345238 -0.32476,-0.517857 -0.73092,-13.796741 -1.24894,-27.593481 -1.55406,-41.3902217 0,-0.00511 0,-0.010226 0,-0.015338 z"
       id="path937"
       inkscape:path-effect="#path-effect987"
       inkscape:original-d="m 130.95945,7.6631978 -0.55105,0.00368 v 0.016447 l -0.43295,39.3716032 -0.37187,0.471562 -0.0747,0.155357 -0.25515,-1.332432 -0.3746,1.105792 v -2.036116 l -0.90392,2.164058 v -0.467904 l -0.88354,0.776795 0.10721,-1.429303 -0.8279,1.376296 -0.15745,0.08956 -0.18459,-1.319637 -0.54831,1.215455 -0.15066,-0.405761 -0.41938,0.478871 -0.0476,-0.519079 -0.54695,0.08956 0.16964,1.888069 0.66504,-0.760345 0.28366,0.763999 0.31896,-0.709168 0.14114,1.008919 0.47368,-1.010746 0.11671,-0.06762 -0.0584,0.780449 0.99621,-0.873665 v 1.935589 l 0.90392,-2.164057 v 0.160842 l 0.21716,0.0457 v 0.05666 l 0.52659,0.155359 0.038,-0.111494 0.17916,0.937636 0.72205,-1.496929 0.49403,-0.626919 0.24023,-21.929366 0.4411,21.991511 0.26059,0.742067 0.57003,0.813348 0.50082,-1.129551 0.12079,0.345446 0.15473,1.767436 0.89305,-1.807646 -0.10859,0.685406 0.48726,0.305235 0.5619,-0.970537 0.90254,1.802163 0.23482,-2.005043 0.7994,1.226421 0.59854,-1.326947 0.27552,0.67444 0.48317,-0.358238 -0.73562,-1.800336 -0.70305,1.560899 -1.08035,-1.6596 -0.19952,1.707123 -0.54424,-1.085686 -0.28909,0.500804 0.10857,-0.685406 -0.48452,-0.30889 -0.65826,1.1131 -0.18729,0.378345 -0.57411,-1.635838 -0.6569,1.484135 -0.008,-0.01278 -0.17373,-0.495322 -0.79397,-39.5891053 z" />
  </g>
  <g
     inkscape:label="Layer 1"
     inkscape:groupmode="layer"
     id="layer1">
    <text
       xml:space="preserve"
       id="text24"
       style="font-style:normal;font-variant:normal;font-weight:normal;font-stretch:normal;font-size:45.8611px;line-height:0.92;font-family:'Agency FB';-inkscape-font-specification:'Agency FB';text-align:center;white-space:pre;shape-inside:url(#rect26);opacity:1;fill:url(#linearGradient889);fill-opacity:1;stroke:#000000;stroke-width:0.714375;stroke-miterlimit:4;stroke-dasharray:0.357188, 0.35718800000000001;stroke-dashoffset:0;stroke-opacity:1;"
       transform="translate(-9.5948408,4.8979552)"
       x="100.60107"
       y="0"><tspan
         x="62.901042"
         y="43.829263"><tspan
           style="shape-inside:url(#rect26);opacity:1">GC-F  D
</tspan></tspan><tspan
         x="12.662089"
         y="86.021474"><tspan
           style="shape-inside:url(#rect26);opacity:1">SIMULATOR 1.0</tspan></tspan></text>
    <circle
       id="path901"
       style="fill:#ff0000;stroke:#000000;stroke-width:0.264583"
       cx="21.916101"
       cy="-9.3544331"
       r="0.035322174" />
    <circle
       id="path903"
       style="fill:#ff0000;stroke:#000000;stroke-width:0.264583"
       cx="69.757347"
       cy="-9.3544331"
       r="0.035322174" />
  </g>
</svg>
