<?xml version="1.0" encoding="UTF-8" standalone="no"?>
<svg
   xmlns:dc="http://purl.org/dc/elements/1.1/"
   xmlns:cc="http://creativecommons.org/ns#"
   xmlns:rdf="http://www.w3.org/1999/02/22-rdf-syntax-ns#"
   xmlns:svg="http://www.w3.org/2000/svg"
   xmlns="http://www.w3.org/2000/svg"
   xmlns:xlink="http://www.w3.org/1999/xlink"
   xmlns:sodipodi="http://sodipodi.sourceforge.net/DTD/sodipodi-0.dtd"
   xmlns:inkscape="http://www.inkscape.org/namespaces/inkscape"
   width="774"
   height="273"
   viewBox="0 0 204.78759 72.23125"
   version="1.1"
   id="svg8"
   inkscape:version="1.0.2-2 (e86c870879, 2021-01-15)"
   sodipodi:docname="title.svg"
   inkscape:export-filename="C:\Users\Karim\Documents\Education &amp; Self Study\Programming Class\24JavaFX\ChromatographySimulator\docs\titleScreen\titleBlackShadow.png"
   inkscape:export-xdpi="151.07001"
   inkscape:export-ydpi="151.07001">
  <defs
     id="defs2">
    <linearGradient
       inkscape:collect="always"
       id="linearGradient993">
      <stop
         style="stop-color:#fb8e00;stop-opacity:1"
         offset="0"
         id="stop989" />
      <stop
         style="stop-color:#800000;stop-opacity:0.6811024"
         offset="1"
         id="stop991" />
    </linearGradient>
    <inkscape:path-effect
       effect="envelope"
       id="path-effect987"
       is_visible="true"
       lpeversion="1"
       yy="true"
       xx="false"
       bendpath1="M 14.353649,22.253437 H 29.816237"
       bendpath2="M 29.816237,22.253437 V 66.546566"
       bendpath3="M 8.0840632,68.561732 H 36.981479"
       bendpath4="M 14.353649,22.253437 V 66.546566"
       bendpath3-nodetypes="cc" />
    <linearGradient
       inkscape:collect="always"
       id="linearGradient983">
      <stop
         style="stop-color:#fb8e00;stop-opacity:1"
         offset="0"
         id="stop979" />
      <stop
         style="stop-color:#800000;stop-opacity:0.6811024"
         offset="1"
         id="stop981" />
    </linearGradient>
    <inkscape:path-effect
       effect="skeletal"
       id="path-effect929"
       is_visible="true"
       lpeversion="1"
       pattern="m 4.110491,-1.094866 c 0,-2.76 2.24,-5 5,-5 2.76,0 5,2.24 5,5 0,2.76 -2.24,5 -5,5 -2.76,0 -5,-2.24 -5,-5 z"
       copytype="single_stretched"
       prop_scale="1"
       scale_y_rel="false"
       spacing="0"
       normal_offset="0"
       tang_offset="0"
       prop_units="false"
       vertical_pattern="false"
       hide_knot="false"
       fuse_tolerance="0" />
    <inkscape:path-effect
       effect="skeletal"
       id="path-effect925"
       is_visible="true"
       lpeversion="1"
       pattern="M 0,5 C 0,2.24 2.24,0 5,0 7.76,0 10,2.24 10,5 10,7.76 7.76,10 5,10 2.24,10 0,7.76 0,5 Z"
       copytype="single_stretched"
       prop_scale="1"
       scale_y_rel="false"
       spacing="0"
       normal_offset="0"
       tang_offset="0"
       prop_units="false"
       vertical_pattern="false"
       hide_knot="false"
       fuse_tolerance="0" />
    <inkscape:path-effect
       effect="skeletal"
       id="path-effect921"
       is_visible="true"
       lpeversion="1"
       pattern="M 0,5 C 0,2.24 2.24,0 5,0 7.76,0 10,2.24 10,5 10,7.76 7.76,10 5,10 2.24,10 0,7.76 0,5 Z"
       copytype="single_stretched"
       prop_scale="1"
       scale_y_rel="false"
       spacing="0"
       normal_offset="0"
       tang_offset="0"
       prop_units="false"
       vertical_pattern="false"
       hide_knot="false"
       fuse_tolerance="0" />
    <linearGradient
       inkscape:collect="always"
       id="linearGradient887">
      <stop
         style="stop-color:#ffff00;stop-opacity:1"
         offset="0"
         id="stop883" />
      <stop
         style="stop-color:#ff0000;stop-opacity:1"
         offset="1"
         id="stop885" />
    </linearGradient>
    <rect
       x="11.759859"
       y="8.5526247"
       width="208.47025"
       height="84.991699"
       id="rect26" />
    <linearGradient
       inkscape:collect="always"
       xlink:href="#linearGradient887"
       id="linearGradient889"
       x1="116.46483"
       y1="14.913369"
       x2="119.67763"
       y2="131.897"
       gradientUnits="userSpaceOnUse" />
    <linearGradient
       inkscape:collect="always"
       xlink:href="#linearGradient993"
       id="linearGradient953"
       x1="129.11668"
       y1="40.223827"
       x2="129.23579"
       y2="49.405285"
       gradientUnits="userSpaceOnUse"
       gradientTransform="matrix(1.1643108,0,0,1.0425186,-129.06159,15.686381)" />
    <linearGradient
       inkscape:collect="always"
       xlink:href="#linearGradient983"
       id="linearGradient985"
       x1="128.11383"
       y1="40.796764"
       x2="128.2894"
       y2="50.671196"
       gradientUnits="userSpaceOnUse"
       gradientTransform="matrix(0.7898679,0,0,0.96935602,-79.922593,18.073883)" />
    <filter
       style="color-interpolation-filters:sRGB"
       inkscape:label="Drop Shadow"
       id="filter2384">
      <feFlood
         flood-opacity="0.93179634966378477"
         flood-color="rgb(0,0,0)"
         result="flood"
         id="feFlood2374" />
      <feComposite
         in2="SourceGraphic"
         operator="in"
         result="composite1"
         id="feComposite2376" />
      <feGaussianBlur
         in="composite1"
         stdDeviation="0.6"
         result="blur"
         id="feGaussianBlur2378" />
      <feOffset
         dx="1.0773751224289754"
         dy="0.88148873653281612"
         result="offset"
         id="feOffset2380" />
      <feComposite
         in="SourceGraphic"
         in2="offset"
         operator="over"
         result="composite2"
         id="feComposite2382" />
    </filter>
    <filter
       style="color-interpolation-filters:sRGB"
       inkscape:label="Drop Shadow"
       id="filter2396">
      <feFlood
         flood-opacity="0.498039"
         flood-color="rgb(0,0,0)"
         result="flood"
         id="feFlood2386" />
      <feComposite
         in="flood"
         in2="SourceGraphic"
         operator="in"
         result="composite1"
         id="feComposite2388" />
      <feGaussianBlur
         in="composite1"
         stdDeviation="0.6"
         result="blur"
         id="feGaussianBlur2390" />
      <feOffset
         dx="1.5"
         dy="2"
         result="offset"
         id="feOffset2392" />
      <feComposite
         in="SourceGraphic"
         in2="offset"
         operator="over"
         result="composite2"
         id="feComposite2394" />
    </filter>
  </defs>
  <sodipodi:namedview
     id="base"
     pagecolor="#ffffff"
     bordercolor="#666666"
     borderopacity="1.0"
     inkscape:pageopacity="0"
     inkscape:pageshadow="2"
     inkscape:zoom="1.3516667"
     inkscape:cx="395.54348"
     inkscape:cy="92.50568"
     inkscape:document-units="px"
     inkscape:current-layer="layer1"
     inkscape:document-rotation="0"
     showgrid="false"
     units="px"
     inkscape:pagecheckerboard="false"
     inkscape:window-width="1920"
     inkscape:window-height="991"
     inkscape:window-x="-9"
     inkscape:window-y="-9"
     inkscape:window-maximized="1" />
  <metadata
     id="metadata5">
    <rdf:RDF>
      <cc:Work
         rdf:about="">
        <dc:format>image/svg+xml</dc:format>
        <dc:type
           rdf:resource="http://purl.org/dc/dcmitype/StillImage" />
        <dc:title />
      </cc:Work>
    </rdf:RDF>
  </metadata>
  <g
     inkscape:groupmode="layer"
     id="layer2"
     inkscape:label="Layer 2" />
  <g
     inkscape:label="Layer 1"
     inkscape:groupmode="layer"
     id="layer1">
    <path
       style="color:#000000;font-style:normal;font-variant:normal;font-weight:normal;font-stretch:normal;font-size:medium;line-height:normal;font-family:sans-serif;font-variant-ligatures:normal;font-variant-position:normal;font-variant-caps:normal;font-variant-numeric:normal;font-variant-alternates:normal;font-variant-east-asian:normal;font-feature-settings:normal;font-variation-settings:normal;text-indent:0;text-align:start;text-decoration:none;text-decoration-line:none;text-decoration-style:solid;text-decoration-color:#000000;letter-spacing:normal;word-spacing:normal;text-transform:none;writing-mode:lr-tb;direction:ltr;text-orientation:mixed;dominant-baseline:auto;baseline-shift:baseline;text-anchor:start;white-space:normal;shape-padding:0;shape-margin:0;inline-size:0;clip-rule:nonzero;display:inline;overflow:visible;visibility:visible;isolation:auto;mix-blend-mode:normal;color-interpolation:sRGB;color-interpolation-filters:linearRGB;solid-color:#000000;solid-opacity:1;vector-effect:none;fill:url(#linearGradient953);fill-opacity:1;fill-rule:nonzero;stroke:url(#linearGradient985);stroke-width:0.401559;stroke-linecap:butt;stroke-linejoin:miter;stroke-miterlimit:4;stroke-dasharray:0.200778, 0.200778;stroke-dashoffset:0;stroke-opacity:1;filter:url(#filter2384);color-rendering:auto;image-rendering:auto;shape-rendering:auto;text-rendering:auto;enable-background:accumulate;stop-color:#000000"
       d="m 21.867771,22.230171 c -0.208688,0.0013 -0.417392,0.0026 -0.626112,0.004 -3.6e-5,0.0059 -7.3e-5,0.01188 -1.09e-4,0.01781 -0.251498,14.212816 -0.634228,28.425632 -1.148191,42.638448 -0.256232,0.17023 -0.513814,0.340459 -0.772746,0.510688 -0.05252,0.05608 -0.105138,0.112166 -0.157842,0.168249 -0.163259,-0.480997 -0.323902,-0.961993 -0.481927,-1.44299 -0.265555,0.399182 -0.5343,0.798363 -0.806233,1.197545 0.02818,-0.735021 0.05636,-1.470042 0.08455,-2.205063 -0.635034,0.781207 -1.285127,1.562414 -1.95028,2.343621 0.0097,-0.168911 0.01947,-0.337822 0.0292,-0.506732 -0.619134,0.280416 -1.243553,0.560832 -1.873255,0.841248 0.113259,-0.515966 0.225338,-1.031932 0.336238,-1.547898 -0.597699,0.496831 -1.20417,0.993662 -1.819414,1.490493 -0.111298,0.03233 -0.222706,0.06466 -0.334222,0.09699 -0.08178,-0.476378 -0.161693,-0.952755 -0.239726,-1.429133 -0.415554,0.438769 -0.836239,0.877538 -1.262055,1.316307 -0.08741,-0.146476 -0.174346,-0.292953 -0.260813,-0.439429 -0.306901,0.172869 -0.6153475,0.345737 -0.9253404,0.518606 -0.00972,-0.187384 -0.019259,-0.374767 -0.028603,-0.56215 -0.3783861,0.03233 -0.7571494,0.06466 -1.1362897,0.09699 0.023772,0.681576 0.050009,1.363153 0.078712,2.04473 0.5015749,-0.274478 0.999257,-0.548956 1.4930461,-0.823434 0.164314,0.275797 0.330297,0.551594 0.497949,0.827391 0.25181,-0.256004 0.501879,-0.512007 0.750206,-0.768011 0.05975,0.364212 0.12059,0.728423 0.182529,1.092634 0.369758,-0.364871 0.735831,-0.729741 1.098218,-1.094612 0.08327,-0.02441 0.166479,-0.04882 0.249627,-0.07323 -0.0657,0.281735 -0.131755,0.56347 -0.198158,0.845205 0.725687,-0.315385 1.444673,-0.630771 2.156959,-0.946156 -0.04849,0.698731 -0.09699,1.397463 -0.145482,2.096194 0.694126,-0.781206 1.373191,-1.562413 2.037197,-2.343619 -0.0029,0.05806 -0.0058,0.116125 -0.0087,0.174187 0.149557,0.0165 0.299191,0.033 0.448901,0.04949 -9.3e-4,0.02045 -0.0019,0.04091 -0.0028,0.06136 0.362528,0.05608 0.725686,0.112166 1.089474,0.168249 0.02777,-0.04025 0.0555,-0.0805 0.0832,-0.12075 0.112947,0.338478 0.227188,0.676957 0.342721,1.015436 0.522059,-0.540379 1.035797,-1.080759 1.541213,-1.621138 0.343768,-0.226312 0.68515,-0.452624 1.024149,-0.678936 0.193704,-7.916316 0.346851,-15.832631 0.459439,-23.748946 0.238783,7.938749 0.552248,15.877498 0.940394,23.816247 0.1814,0.26788 0.364288,0.53576 0.548666,0.80364 0.398525,0.293612 0.800619,0.587224 1.206283,0.880836 0.337406,-0.407759 0.670456,-0.815518 0.999151,-1.223276 0.08803,0.124703 0.176373,0.249406 0.265042,0.37411 0.133577,0.638029 0.269261,1.276058 0.407049,1.914087 0.599739,-0.652545 1.18705,-1.30509 1.761932,-1.957634 -0.05912,0.247425 -0.118814,0.494851 -0.179081,0.742276 0.345888,0.110188 0.692921,0.220375 1.041099,0.330563 0.367031,-0.350356 0.729863,-0.700711 1.088496,-1.051067 0.678221,0.650565 1.368964,1.301131 2.072229,1.951696 0.09058,-0.723803 0.177533,-1.447607 0.260862,-2.17141 0.598964,0.442728 1.205476,0.885455 1.819535,1.328183 0.35804,-0.479017 0.709965,-0.958034 1.055775,-1.43705 0.223341,0.243467 0.448112,0.486933 0.674314,0.7304 0.316491,-0.12932 0.631649,-0.258641 0.945475,-0.387962 -0.608592,-0.649906 -1.206989,-1.299812 -1.795189,-1.949718 -0.397768,0.563471 -0.803985,1.126942 -1.218651,1.690413 -0.81853,-0.599101 -1.623257,-1.198203 -2.414181,-1.797305 -0.07284,0.616257 -0.148307,1.232515 -0.226395,1.848772 -0.413,-0.391924 -0.821452,-0.783847 -1.225355,-1.175771 -0.181532,0.180786 -0.364179,0.361572 -0.547941,0.542357 0.05488,-0.247425 0.109191,-0.49485 0.162927,-0.742275 -0.338314,-0.111507 -0.675476,-0.223014 -1.011486,-0.334521 -0.417382,0.401819 -0.840405,0.803639 -1.269069,1.205458 -0.120704,0.13658 -0.241953,0.27316 -0.363748,0.409739 -0.426488,-0.590523 -0.845746,-1.181047 -1.257774,-1.771571 -0.422483,0.535761 -0.852472,1.071521 -1.289967,1.607282 -0.0056,-0.0046 -0.01125,-0.0092 -0.01688,-0.01384 -0.12412,-0.178808 -0.247577,-0.357615 -0.370372,-0.536423 -0.864763,-14.291332 -1.487533,-28.582664 -1.868312,-42.873995 -1.3e-5,-0.0053 -2.5e-5,-0.01058 -3.8e-5,-0.01587 z"
       id="path937"
       inkscape:path-effect="#path-effect987"
       inkscape:original-d="m 21.882123,22.253437 -0.626358,0.0038 v 0.01704 l -0.492117,40.783008 -0.422691,0.488465 -0.08491,0.160927 -0.29002,-1.380197 -0.425793,1.145433 v -2.109108 l -1.027449,2.241636 V 63.11976 l -1.004286,0.804641 0.121861,-1.48054 -0.941042,1.425633 -0.178967,0.09277 -0.209817,-1.366943 -0.623243,1.259027 -0.171249,-0.420307 -0.476693,0.496038 -0.0541,-0.537687 -0.621697,0.09277 0.192823,1.955752 0.755925,-0.787601 0.322426,0.791386 0.362549,-0.73459 0.160429,1.045087 0.538414,-1.046979 0.132659,-0.07004 -0.06638,0.808426 1.132354,-0.904984 v 2.004977 l 1.027451,-2.241635 v 0.166607 l 0.246838,0.04734 v 0.05869 l 0.598554,0.160928 0.04319,-0.115496 0.203644,0.971249 0.820726,-1.550593 0.561545,-0.649392 0.273061,-22.715495 0.501381,22.779868 0.296203,0.768669 0.647931,0.842505 0.569263,-1.170044 0.137297,0.35783 0.175876,1.830795 1.015096,-1.872447 -0.123431,0.709976 0.55385,0.316178 0.63869,-1.005329 1.025883,1.866767 0.266911,-2.07692 0.908647,1.270386 0.680338,-1.374516 0.313173,0.698617 0.5492,-0.37108 -0.836151,-1.864875 -0.79913,1.616854 -1.227992,-1.719094 -0.226787,1.768321 -0.618616,-1.124606 -0.328598,0.518756 0.123407,-0.709975 -0.550735,-0.319964 -0.748219,1.153002 -0.212885,0.391909 -0.652569,-1.69448 -0.746673,1.53734 -0.0091,-0.01324 -0.197473,-0.51308 -0.902475,-41.008305 z"
       transform="matrix(1,0,0,0.97021672,0,2.0413004)" />
    <text
       xml:space="preserve"
       id="text24"
       style="font-style:normal;font-variant:normal;font-weight:normal;font-stretch:normal;font-size:45.8611px;line-height:0.92;font-family:'Agency FB';-inkscape-font-specification:'Agency FB';text-align:center;white-space:pre;shape-inside:url(#rect26);fill:url(#linearGradient889);fill-opacity:1;stroke:#000000;stroke-width:0.714375;stroke-miterlimit:4;stroke-dasharray:0.357188, 0.35718800000000001;stroke-dashoffset:0;stroke-opacity:1;filter:url(#filter2384);"
       transform="translate(-14.299272,-23.201385)"
       x="100.60107"
       y="0"><tspan
         x="22.413234"
         y="43.829263"><tspan
           style="font-size:25.4px;fill:url(#linearGradient889)">GAS CHROMATOGRAPHY</tspan><tspan
           style="shape-inside:url(#rect26);opacity:1;fill:url(#linearGradient889)">
</tspan></tspan><tspan
         x="12.740465"
         y="86.021474"><tspan
           style="shape-inside:url(#rect26);opacity:1;fill:url(#linearGradient889)">S MULATOR 1.0</tspan></tspan></text>
    <circle
       id="path901"
       style="fill:#ff0000;stroke:#000000;stroke-width:0.264583"
       cx="21.916101"
       cy="-9.3544331"
       r="0.035322174" />
    <circle
       id="path903"
       style="fill:#ff0000;stroke:#000000;stroke-width:0.264583"
       cx="69.757347"
       cy="-9.3544331"
       r="0.035322174" />
  </g>
</svg>
